<?xml version="1.0" standalone="no"?>
<!DOCTYPE svg PUBLIC "-//W3C//DTD SVG 20010904//EN"
 "http://www.w3.org/TR/2001/REC-SVG-20010904/DTD/svg10.dtd">
<svg version="1.0" xmlns="http://www.w3.org/2000/svg"
 width="48.000000pt" height="48.000000pt" viewBox="0 0 48.000000 48.000000"
 preserveAspectRatio="xMidYMid meet">

<g transform="translate(0.000000,48.000000) scale(0.100000,-0.100000)"
fill="#000000" stroke="none">
<path d="M80 400 c-18 -18 -20 -33 -20 -160 0 -127 2 -142 20 -160 18 -18 33
-20 160 -20 187 0 180 -7 180 180 0 187 7 180 -180 180 -127 0 -142 -2 -160
-20z m298 -22 c33 -33 15 -38 -138 -38 -153 0 -171 5 -138 38 17 17 259 17
276 0z m12 -166 c0 -63 -4 -102 -12 -110 -17 -17 -259 -17 -276 0 -8 8 -12 47
-12 110 l0 98 150 0 150 0 0 -98z"/>
<path d="M134 255 c-4 -9 -2 -21 4 -27 15 -15 44 -1 40 19 -4 23 -36 29 -44 8z"/>
<path d="M223 254 c-8 -21 13 -42 28 -27 13 13 5 43 -11 43 -6 0 -13 -7 -17
-16z"/>
<path d="M304 255 c-4 -9 -2 -21 4 -27 15 -15 44 -1 40 19 -4 23 -36 29 -44 8z"/>
<path d="M134 165 c-4 -9 -2 -21 4 -27 15 -15 44 -1 40 19 -4 23 -36 29 -44 8z"/>
<path d="M223 164 c-8 -21 13 -42 28 -27 13 13 5 43 -11 43 -6 0 -13 -7 -17
-16z"/>
</g>
</svg>
